<svg width="205" height="205" viewBox="0 0 205 205" fill="none" xmlns="http://www.w3.org/2000/svg">
<path d="M102.5 200.5C156.624 200.5 200.5 156.624 200.5 102.5C200.5 48.3761 156.624 4.5 102.5 4.5C48.3761 4.5 4.5 48.3761 4.5 102.5C4.5 156.624 48.3761 200.5 102.5 200.5Z" stroke="#F4F3EF" stroke-width="9"/>
<path d="M102.5 166.5C137.846 166.5 166.5 137.846 166.5 102.5C166.5 67.1538 137.846 38.5 102.5 38.5C67.1538 38.5 38.5 67.1538 38.5 102.5C38.5 137.846 67.1538 166.5 102.5 166.5Z" fill="#F4F3EF"/>
<path d="M178.04 51.4C188.131 46.8383 192.669 34.8346 188.177 24.5889C183.684 14.3432 171.862 9.73538 161.771 14.2971C151.68 18.8587 147.142 30.8625 151.635 41.1082C156.127 51.3539 167.95 55.9617 178.04 51.4Z" fill="#F4F3EF"/>
</svg>
